<svg width="14" height="11" viewBox="0 0 14 11" fill="none" xmlns="http://www.w3.org/2000/svg">
<path d="M13.5333 10.0435H13.0667V4.46386C13.0667 4.30644 13.0288 4.15146 12.9563 4.01265C12.8839 3.87385 12.7791 3.75551 12.6513 3.66814L7.518 0.160642C7.36469 0.0558953 7.18455 0 7.00029 0C6.81603 0 6.6359 0.0558953 6.48258 0.160642L1.34925 3.66814C1.22137 3.75544 1.1165 3.87375 1.04394 4.01256C0.971388 4.15137 0.933394 4.30639 0.933333 4.46386V10.0435H0.466667C0.342899 10.0435 0.2242 10.0939 0.136683 10.1835C0.0491665 10.2732 0 10.3949 0 10.5217C0 10.6486 0.0491665 10.7702 0.136683 10.8599C0.2242 10.9496 0.342899 11 0.466667 11H13.5333C13.6571 11 13.7758 10.9496 13.8633 10.8599C13.9508 10.7702 14 10.6486 14 10.5217C14 10.3949 13.9508 10.2732 13.8633 10.1835C13.7758 10.0939 13.6571 10.0435 13.5333 10.0435ZM1.86667 4.46386L7 0.956361L12.1333 4.46327V10.0435H10.7333V6.69558C10.7333 6.56874 10.6842 6.44709 10.5967 6.3574C10.5091 6.2677 10.3904 6.21732 10.2667 6.21732H3.73333C3.60957 6.21732 3.49087 6.2677 3.40335 6.3574C3.31583 6.44709 3.26667 6.56874 3.26667 6.69558V10.0435H1.86667V4.46386ZM9.8 7.17385V8.13039H7.46667V7.17385H9.8ZM6.53333 8.13039H4.2V7.17385H6.53333V8.13039ZM4.2 9.08693H6.53333V10.0435H4.2V9.08693ZM7.46667 9.08693H9.8V10.0435H7.46667V9.08693Z" fill="#50555C"/>
</svg>
