<svg width="16" height="11" viewBox="0 0 16 11" fill="none" xmlns="http://www.w3.org/2000/svg">
<path d="M15.5713 9.11429L8.88778 4.19048L10.452 3.0381C10.5183 2.98937 10.5722 2.92614 10.6094 2.8534C10.6465 2.78066 10.6659 2.70042 10.666 2.61905C10.666 1.92443 10.385 1.25827 9.88485 0.767101C9.38469 0.275935 8.70633 0 7.999 0C7.29167 0 6.61331 0.275935 6.11315 0.767101C5.61299 1.25827 5.332 1.92443 5.332 2.61905C5.332 2.75797 5.3882 2.8912 5.48823 2.98944C5.58826 3.08767 5.72393 3.14286 5.8654 3.14286C6.00687 3.14286 6.14254 3.08767 6.24257 2.98944C6.3426 2.8912 6.3988 2.75797 6.3988 2.61905C6.39988 2.2245 6.55205 1.84479 6.82509 1.55535C7.09812 1.26591 7.47204 1.08793 7.87256 1.05675C8.27307 1.02558 8.67087 1.1435 8.98693 1.38708C9.30299 1.63067 9.51417 1.9821 9.57853 2.37155L7.68829 3.76423L7.66963 3.77798L0.426722 9.11429C0.247736 9.24611 0.115485 9.42986 0.0486747 9.63955C-0.0181355 9.84923 -0.0161225 10.0742 0.0544287 10.2827C0.12498 10.4912 0.260498 10.6727 0.441815 10.8014C0.623132 10.9301 0.84107 10.9996 1.0648 11H14.9332C15.1571 11 15.3753 10.9308 15.557 10.8023C15.7386 10.6737 15.8744 10.4923 15.9453 10.2837C16.0161 10.0751 16.0182 9.84989 15.9515 9.64002C15.8847 9.43014 15.7524 9.24621 15.5733 9.11429H15.5713ZM14.9332 9.95238H1.0648L7.999 4.84524L14.9332 9.95238Z" fill="#50555C"/>
</svg>
