<svg width="12" height="12" viewBox="0 0 12 12" fill="none" xmlns="http://www.w3.org/2000/svg">
<path d="M11.932 11.2698C11.0542 9.69168 9.70143 8.56006 8.12276 8.02362C8.90364 7.54021 9.51034 6.80359 9.84968 5.9269C10.189 5.05021 10.2422 4.08191 10.0012 3.17072C9.76011 2.25953 9.23808 1.45582 8.51525 0.883022C7.79243 0.310221 6.90878 0 6 0C5.09123 0 4.20757 0.310221 3.48475 0.883022C2.76193 1.45582 2.2399 2.25953 1.99883 3.17072C1.75776 4.08191 1.81098 5.05021 2.15032 5.9269C2.48966 6.80359 3.09636 7.54021 3.87724 8.02362C2.29857 8.55946 0.945839 9.69108 0.0680323 11.2698C0.0358415 11.3244 0.0144896 11.3851 0.0052364 11.4484C-0.00401685 11.5117 -0.000984014 11.5763 0.0141559 11.6384C0.0292959 11.7005 0.0562364 11.7588 0.0933877 11.8098C0.130539 11.8609 0.177149 11.9037 0.230467 11.9357C0.283785 11.9677 0.342731 11.9883 0.403828 11.9963C0.464925 12.0042 0.526935 11.9994 0.586198 11.982C0.645462 11.9646 0.70078 11.9351 0.748887 11.8951C0.796995 11.8552 0.836918 11.8056 0.8663 11.7493C1.95218 9.79776 3.87148 8.63258 6 8.63258C8.12852 8.63258 10.0478 9.79776 11.1337 11.7493C11.1631 11.8056 11.203 11.8552 11.2511 11.8951C11.2992 11.9351 11.3545 11.9646 11.4138 11.982C11.4731 11.9994 11.5351 12.0042 11.5962 11.9963C11.6573 11.9883 11.7162 11.9677 11.7695 11.9357C11.8229 11.9037 11.8695 11.8609 11.9066 11.8098C11.9438 11.7588 11.9707 11.7005 11.9858 11.6384C12.001 11.5763 12.004 11.5117 11.9948 11.4484C11.9855 11.3851 11.9642 11.3244 11.932 11.2698ZM2.77235 4.31711C2.77235 3.65326 2.96164 3.00432 3.3163 2.45235C3.67096 1.90038 4.17505 1.47017 4.76483 1.21612C5.35461 0.962078 6.00358 0.895609 6.62969 1.02512C7.25579 1.15463 7.8309 1.4743 8.2823 1.94372C8.73369 2.41313 9.0411 3.0112 9.16564 3.66229C9.29018 4.31338 9.22626 4.98826 8.98197 5.60158C8.73767 6.2149 8.32397 6.73911 7.79319 7.10792C7.2624 7.47674 6.63837 7.67359 6 7.67359C5.14425 7.67264 4.32382 7.3187 3.71872 6.68945C3.11361 6.06019 2.77326 5.20701 2.77235 4.31711Z" fill="#50555C"/>
</svg>
