<svg width="12" height="12" viewBox="0 0 12 12" fill="none" xmlns="http://www.w3.org/2000/svg">
<path d="M4.36364 0H1.09091C0.801582 0 0.524105 0.114935 0.31952 0.31952C0.114935 0.524105 0 0.801582 0 1.09091V4.36364C0 4.65296 0.114935 4.93044 0.31952 5.13503C0.524105 5.33961 0.801582 5.45455 1.09091 5.45455H4.36364C4.65296 5.45455 4.93044 5.33961 5.13503 5.13503C5.33961 4.93044 5.45455 4.65296 5.45455 4.36364V1.09091C5.45455 0.801582 5.33961 0.524105 5.13503 0.31952C4.93044 0.114935 4.65296 0 4.36364 0ZM4.36364 4.36364H1.09091V1.09091H4.36364V4.36364ZM10.9091 0H7.63636C7.34704 0 7.06956 0.114935 6.86497 0.31952C6.66039 0.524105 6.54545 0.801582 6.54545 1.09091V4.36364C6.54545 4.65296 6.66039 4.93044 6.86497 5.13503C7.06956 5.33961 7.34704 5.45455 7.63636 5.45455H10.9091C11.1984 5.45455 11.4759 5.33961 11.6805 5.13503C11.8851 4.93044 12 4.65296 12 4.36364V1.09091C12 0.801582 11.8851 0.524105 11.6805 0.31952C11.4759 0.114935 11.1984 0 10.9091 0ZM10.9091 4.36364H7.63636V1.09091H10.9091V4.36364ZM4.36364 6.54545H1.09091C0.801582 6.54545 0.524105 6.66039 0.31952 6.86497C0.114935 7.06956 0 7.34704 0 7.63636V10.9091C0 11.1984 0.114935 11.4759 0.31952 11.6805C0.524105 11.8851 0.801582 12 1.09091 12H4.36364C4.65296 12 4.93044 11.8851 5.13503 11.6805C5.33961 11.4759 5.45455 11.1984 5.45455 10.9091V7.63636C5.45455 7.34704 5.33961 7.06956 5.13503 6.86497C4.93044 6.66039 4.65296 6.54545 4.36364 6.54545ZM4.36364 10.9091H1.09091V7.63636H4.36364V10.9091ZM10.9091 6.54545H7.63636C7.34704 6.54545 7.06956 6.66039 6.86497 6.86497C6.66039 7.06956 6.54545 7.34704 6.54545 7.63636V10.9091C6.54545 11.1984 6.66039 11.4759 6.86497 11.6805C7.06956 11.8851 7.34704 12 7.63636 12H10.9091C11.1984 12 11.4759 11.8851 11.6805 11.6805C11.8851 11.4759 12 11.1984 12 10.9091V7.63636C12 7.34704 11.8851 7.06956 11.6805 6.86497C11.4759 6.66039 11.1984 6.54545 10.9091 6.54545ZM10.9091 10.9091H7.63636V7.63636H10.9091V10.9091Z" fill="#50555C"/>
</svg>
