<svg width="14" height="13" viewBox="0 0 14 13" fill="none" xmlns="http://www.w3.org/2000/svg">
<path d="M12.9231 3.12H10.2308C10.2308 2.29252 9.89039 1.49894 9.2845 0.913827C8.67861 0.328713 7.85685 0 7 0C6.14315 0 5.32139 0.328713 4.7155 0.913827C4.10961 1.49894 3.76923 2.29252 3.76923 3.12H1.07692C0.791305 3.12 0.517386 3.22957 0.315423 3.42461C0.113461 3.61965 0 3.88417 0 4.16V11.96C0 12.2358 0.113461 12.5004 0.315423 12.6954C0.517386 12.8904 0.791305 13 1.07692 13H12.9231C13.2087 13 13.4826 12.8904 13.6846 12.6954C13.8865 12.5004 14 12.2358 14 11.96V4.16C14 3.88417 13.8865 3.61965 13.6846 3.42461C13.4826 3.22957 13.2087 3.12 12.9231 3.12ZM7 1.04C7.57124 1.04 8.11907 1.25914 8.523 1.64922C8.92692 2.03929 9.15385 2.56835 9.15385 3.12H4.84615C4.84615 2.56835 5.07308 2.03929 5.477 1.64922C5.88093 1.25914 6.42876 1.04 7 1.04ZM12.9231 11.96H1.07692V4.16H3.76923V5.2C3.76923 5.33791 3.82596 5.47018 3.92694 5.5677C4.02792 5.66521 4.16488 5.72 4.30769 5.72C4.4505 5.72 4.58746 5.66521 4.68844 5.5677C4.78942 5.47018 4.84615 5.33791 4.84615 5.2V4.16H9.15385V5.2C9.15385 5.33791 9.21058 5.47018 9.31156 5.5677C9.41254 5.66521 9.5495 5.72 9.69231 5.72C9.83512 5.72 9.97208 5.66521 10.0731 5.5677C10.174 5.47018 10.2308 5.33791 10.2308 5.2V4.16H12.9231V11.96Z" fill="#50555C"/>
</svg>
